<?xml version="1.0" encoding="UTF-8"?>
<!DOCTYPE svg PUBLIC "-//W3C//DTD SVG 1.1//EN" "http://www.w3.org/Graphics/SVG/1.1/DTD/svg11.dtd">
<svg xmlns="http://www.w3.org/2000/svg" version="1.1" width="128px" height="128px" style="shape-rendering:geometricPrecision; text-rendering:geometricPrecision; image-rendering:optimizeQuality; fill-rule:evenodd; clip-rule:evenodd" xmlns:xlink="http://www.w3.org/1999/xlink">
<g><path style="opacity:1" fill="#d73b3b" d="M 0.5,-0.5 C 42.5,-0.5 84.5,-0.5 126.5,-0.5C 126.5,0.166667 126.833,0.5 127.5,0.5C 127.5,42.5 127.5,84.5 127.5,126.5C 126.833,126.5 126.5,126.833 126.5,127.5C 84.5,127.5 42.5,127.5 0.5,127.5C 0.5,126.833 0.166667,126.5 -0.5,126.5C -0.5,84.5 -0.5,42.5 -0.5,0.5C 0.166667,0.5 0.5,0.166667 0.5,-0.5 Z"/></g>
<g><path style="opacity:1" fill="#faf6f6" d="M 39.5,22.5 C 50.8382,22.3335 62.1716,22.5001 73.5,23C 88.9551,27.3947 95.1217,37.5614 92,53.5C 89.4235,63.0753 83.2568,68.9087 73.5,71C 65.8406,71.4997 58.1739,71.6664 50.5,71.5C 50.5,82.5 50.5,93.5 50.5,104.5C 46.8333,104.5 43.1667,104.5 39.5,104.5C 39.5,77.1667 39.5,49.8333 39.5,22.5 Z"/></g>
<g><path style="opacity:1" fill="#d73d3c" d="M 50.5,31.5 C 57.5631,31.2122 64.5631,31.7122 71.5,33C 77.6056,35.366 80.6056,39.866 80.5,46.5C 80.8031,55.0272 76.8031,60.1939 68.5,62C 62.5092,62.4995 56.5092,62.6662 50.5,62.5C 50.5,52.1667 50.5,41.8333 50.5,31.5 Z"/></g>
</svg>
