<?xml version="1.0" encoding="UTF-8"?>
<!DOCTYPE svg PUBLIC "-//W3C//DTD SVG 1.1//EN" "http://www.w3.org/Graphics/SVG/1.1/DTD/svg11.dtd">
<svg xmlns="http://www.w3.org/2000/svg" version="1.1" width="152px" height="64px" style="shape-rendering:geometricPrecision; text-rendering:geometricPrecision; image-rendering:optimizeQuality; fill-rule:evenodd; clip-rule:evenodd" xmlns:xlink="http://www.w3.org/1999/xlink">
<g><path style="opacity:1" fill="#d73b3b" d="M 0.5,-0.5 C 50.5,-0.5 100.5,-0.5 150.5,-0.5C 150.5,0.166667 150.833,0.5 151.5,0.5C 151.5,17.5 151.5,34.5 151.5,51.5C 149.689,51.572 148.356,52.4053 147.5,54C 148.134,57.0779 149.134,59.9112 150.5,62.5C 150.5,62.8333 150.5,63.1667 150.5,63.5C 146.167,63.5 141.833,63.5 137.5,63.5C 136.525,60.9333 135.858,58.2666 135.5,55.5C 132.196,56.4941 128.863,57.4941 125.5,58.5C 124.334,60.1673 124.334,61.834 125.5,63.5C 116.833,63.5 108.167,63.5 99.5,63.5C 99.3089,59.9264 98.3089,56.5931 96.5,53.5C 93.2869,54.4269 90.1203,55.4269 87,56.5C 86.9822,58.7972 87.1489,61.1305 87.5,63.5C 83.5,63.5 79.5,63.5 75.5,63.5C 75.0291,62.0992 74.3624,60.7658 73.5,59.5C 69.933,60.5432 66.5996,61.8765 63.5,63.5C 42.5,63.5 21.5,63.5 0.5,63.5C 0.5,62.8333 0.166667,62.5 -0.5,62.5C -0.5,41.8333 -0.5,21.1667 -0.5,0.5C 0.166667,0.5 0.5,0.166667 0.5,-0.5 Z"/></g>
<g><path style="opacity:1" fill="#fdf7f7" d="M 87.5,17.5 C 88.8142,19.9151 89.4809,22.7485 89.5,26C 89.1667,28.8333 88.8333,31.6667 88.5,34.5C 87.5046,28.8722 87.1712,23.2055 87.5,17.5 Z"/></g>
<g><path style="opacity:1" fill="#fdf7f7" d="M 120.5,17.5 C 122.465,17.9483 122.798,18.9483 121.5,20.5C 120.614,19.675 120.281,18.675 120.5,17.5 Z"/></g>
<g><path style="opacity:1" fill="#f8e3e3" d="M 28.5,18.5 C 31.1873,18.3359 33.854,18.5026 36.5,19C 39.9867,21.4507 40.3201,24.284 37.5,27.5C 35.5914,28.3482 33.5914,28.6816 31.5,28.5C 31.5,30.5 31.5,32.5 31.5,34.5C 30.5,34.5 29.5,34.5 28.5,34.5C 28.5,29.1667 28.5,23.8333 28.5,18.5 Z"/></g>
<g><path style="opacity:1" fill="#fbf1f1" d="M 64.5,19.5 C 66.0481,19.8212 66.7148,20.8212 66.5,22.5C 71.8333,23.1667 71.8333,23.8333 66.5,24.5C 66.3367,26.8568 66.5034,29.1902 67,31.5C 68.2051,32.0712 69.3717,32.7379 70.5,33.5C 68.6471,34.7596 66.8138,34.7596 65,33.5C 64.9632,29.9111 64.1299,26.5778 62.5,23.5C 63.8532,22.4763 64.5198,21.143 64.5,19.5 Z"/></g>
<g><path style="opacity:1" fill="#d84241" d="M 31.5,20.5 C 35.5273,20.2596 36.8607,21.9263 35.5,25.5C 34.2638,26.2458 32.9305,26.5792 31.5,26.5C 31.5,24.5 31.5,22.5 31.5,20.5 Z"/></g>
<g><path style="opacity:1" fill="#fdf7f7" d="M 120.5,22.5 C 121.794,24.0478 122.461,26.0478 122.5,28.5C 122.167,30.5 121.833,32.5 121.5,34.5C 120.509,30.5546 120.176,26.5546 120.5,22.5 Z"/></g>
<g><path style="opacity:1" fill="#fbefee" d="M 106.5,22.5 C 109.395,22.4977 112.395,22.831 115.5,23.5C 116.833,27.1667 116.833,30.8333 115.5,34.5C 114.679,31.5535 114.179,28.5535 114,25.5C 112.062,24.1398 110.396,24.4732 109,26.5C 108.818,29.2263 108.318,31.8929 107.5,34.5C 106.509,30.5546 106.176,26.5546 106.5,22.5 Z"/></g>
<g><path style="opacity:1" fill="#f9e7e6" d="M 41.5,22.5 C 44.1194,22.2317 46.6194,22.565 49,23.5C 50.3368,27.0257 50.8368,30.6924 50.5,34.5C 48.2895,33.4172 46.1229,33.4172 44,34.5C 39.2448,33.3132 38.4114,30.8132 41.5,27C 43.5,26.6667 45.5,26.3333 47.5,26C 45.6674,24.2125 43.6674,24.0458 41.5,25.5C 40.4376,24.5754 40.4376,23.5754 41.5,22.5 Z"/></g>
<g><path style="opacity:1" fill="#faeaea" d="M 75.5,22.5 C 81.1445,21.4809 84.1445,23.8143 84.5,29.5C 81.4281,29.1826 78.4281,29.5159 75.5,30.5C 75.7093,31.086 76.0426,31.586 76.5,32C 78.9951,32.1575 81.3284,32.3241 83.5,32.5C 83.2907,33.086 82.9574,33.586 82.5,34C 72.4151,34.7604 70.0818,30.9271 75.5,22.5 Z"/></g>
<g><path style="opacity:1" fill="#d94d4a" d="M 76.5,24.5 C 78.6648,24.1159 80.3315,24.7826 81.5,26.5C 79.5,27.8333 77.5,27.8333 75.5,26.5C 75.8627,25.8165 76.1961,25.1499 76.5,24.5 Z"/></g>
<g><path style="opacity:1" fill="#f8e6e6" d="M 95.5,22.5 C 103.003,21.8526 105.503,25.186 103,32.5C 95.6289,36.1405 92.2956,33.8072 93,25.5C 94.045,24.6266 94.8783,23.6266 95.5,22.5 Z"/></g>
<g><path style="opacity:1" fill="#d84443" d="M 96.5,24.5 C 99.3523,24.3524 101.019,25.6857 101.5,28.5C 100.875,31.9865 99.0421,32.9865 96,31.5C 95.2967,29.0709 95.4634,26.7375 96.5,24.5 Z"/></g>
<g><path style="opacity:1" fill="#db534f" d="M 42.5,28.5 C 44.1667,28.5 45.8333,28.5 47.5,28.5C 47.6162,31.9103 45.9496,33.2436 42.5,32.5C 42.5,31.1667 42.5,29.8333 42.5,28.5 Z"/></g>
<g><path style="opacity:1" fill="#f7e0e0" d="M 54.5,22.5 C 56.7925,22.2436 58.9592,22.5769 61,23.5C 61.6877,24.3317 61.521,24.9984 60.5,25.5C 58.9291,24.6906 57.2624,24.3573 55.5,24.5C 55.5,25.5 55.5,26.5 55.5,27.5C 58.7123,27.1058 61.0456,28.2724 62.5,31C 62.2409,32.2613 61.5742,33.2613 60.5,34C 57.9009,34.769 55.4009,34.6023 53,33.5C 52.3123,32.6683 52.479,32.0016 53.5,31.5C 55.6674,32.9542 57.6674,32.7875 59.5,31C 57.2117,30.0536 55.045,28.8869 53,27.5C 52.3872,25.5048 52.8872,23.8381 54.5,22.5 Z"/></g>
<g><path style="opacity:1" fill="#faf7f7" d="M 135.5,55.5 C 134.5,51.4993 133.5,47.4993 132.5,43.5C 136.197,42.8195 139.864,42.3195 143.5,42C 145.042,45.3338 146.042,48.8338 146.5,52.5C 142.761,53.3028 139.095,54.3028 135.5,55.5 Z"/></g>
<g><path style="opacity:1" fill="#faf7f7" d="M 117.5,47.5 C 118.675,47.281 119.675,47.6143 120.5,48.5C 121.654,51.4518 122.654,54.4518 123.5,57.5C 120.331,59.1314 116.998,60.4648 113.5,61.5C 112.914,61.2907 112.414,60.9574 112,60.5C 111.321,57.4501 110.488,54.4501 109.5,51.5C 112.02,49.8703 114.687,48.537 117.5,47.5 Z"/></g>
<g><path style="opacity:1" fill="#fbf4f4" d="M 151.5,51.5 C 151.5,55.1667 151.5,58.8333 151.5,62.5C 151.167,62.5 150.833,62.5 150.5,62.5C 149.134,59.9112 148.134,57.0779 147.5,54C 148.356,52.4053 149.689,51.572 151.5,51.5 Z"/></g>
<g><path style="opacity:1" fill="#faf8f8" d="M 99.5,63.5 C 95.5,63.5 91.5,63.5 87.5,63.5C 87.1489,61.1305 86.9822,58.7972 87,56.5C 90.1203,55.4269 93.2869,54.4269 96.5,53.5C 98.3089,56.5931 99.3089,59.9264 99.5,63.5 Z"/></g>
<g><path style="opacity:1" fill="#faf8f8" d="M 135.5,55.5 C 135.858,58.2666 136.525,60.9333 137.5,63.5C 133.5,63.5 129.5,63.5 125.5,63.5C 124.334,61.834 124.334,60.1673 125.5,58.5C 128.863,57.4941 132.196,56.4941 135.5,55.5 Z"/></g>
<g><path style="opacity:1" fill="#faf3f3" d="M 75.5,63.5 C 71.5,63.5 67.5,63.5 63.5,63.5C 66.5996,61.8765 69.933,60.5432 73.5,59.5C 74.3624,60.7658 75.0291,62.0992 75.5,63.5 Z"/></g>
</svg>
